I Melt with You (2011) NTSC BR2DVD DD5.1 Eng NL Subs
.
[IMG]http://img84.imageshack.us/img84/1899/72367.jpg[/IMG]
.
Verenigde Staten
Thriller
125 minuten

geregisseerd door Mark Pellington
met Thomas Jane, Jeremy Piven en Rob Lowe

Vier vrienden komen elk jaar samen om hun vriendschap te vieren. Dit jaar worden ze echter onverwacht herinnerd aan een belofte die ze elkaar 25 jaar geleden hebben gemaakt. Ze bestuderen de keuzes die ze gemaakt hebben en komen tot het besef dat wat ze zeiden dat ze gingen doen met hun leven en dat wat ze uiteindelijk gedaan hebben volledig van elkaar verschilt. Als reactie hernieuwen ze het pact dat ze toentertijd sloten en zweren plechtig te leven, te sterven en te doden bij dit pactà
. 
http://www.moviemeter.nl/film/72367
.
PLOT
.
When four 40-something college friends meet up for their annual reunion, things start to spiral out of control, and a pact they made as young men is revisited. 
. 
http://www.imdb.com/title/tt1691920/
.
INFO
.
Source: 1080p
Video: NTSC
Audio: DD5.1 Eng
Subs: Sub 1, 2-Dutch, 3, 4-English
NL Vertaling: QoQ-TEAM
.
Enjoy
.
Info First Vob.
.
General
Complete name                            : E:\INFO\INFO w6\I Melt with You (2011)\I melt for You\VIDEO_TS\VTS_01_1.VOB
Format                                   : MPEG-PS
File size                                : 1 024 MiB
Duration                                 : 27mn 0s
Overall bit rate mode                    : Variable
Overall bit rate                         : 5 299 Kbps
Writing library                          : encoded by TMPGEnc Authoring Works 4 Version. 4.0.11.39

Video
ID                                       : 224 (0xE0)
Format                                   : MPEG Video
Format version                           : Version 2
Format profile                           : Main@Main
Format settings, BVOP                    : Yes
Format settings, Matrix                  : Custom
Duration                                 : 27mn 0s
Bit rate mode                            : Variable
Bit rate                                 : 4 746 Kbps
Maximum bit rate                         : 8 000 Kbps
Width                                    : 720 pixels
Height                                   : 480 pixels
Display aspect ratio                     : 16:9
Frame rate                               : 23.976 fps
Standard                                 : NTSC
Color space                              : YUV
Chroma subsampling                       : 4:2:0
Bit depth                                : 8 bits
Scan type                                : Progressive
Scan order                               : 2:3 Pulldown
Compression mode                         : Lossy
Bits/(Pixel*Frame)                       : 0.573
Stream size                              : 917 MiB (90%)
Writing library                          : TMPGEnc Authoring Works 4 Version. 4.0.11.39
Color primaries                          : SMPTE 170M
Transfer characteristics                 : SMPTE 170M
Matrix coefficients                      : SMPTE 170M

Audio
ID                                       : 189 (0xBD)-128 (0x80)
Format                                   : AC-3
Format/Info                              : Audio Coding 3
Mode extension                           : CM (complete main)
Muxing mode                              : DVD-Video
Duration                                 : 27mn 0s
Bit rate mode                            : Constant
Bit rate                                 : 448 Kbps
Channel(s)                               : 6 channels
Channel positions                        : Front: L C R, Side: L R, LFE
Sampling rate                            : 48.0 KHz
Bit depth                                : 16 bits
Compression mode                         : Lossy
Stream size                              : 86.5 MiB (8%)

Text #1
ID                                       : 189 (0xBD)-32 (0x20)
Format                                   : RLE
Format/Info                              : Run-length encoding
Muxing mode                              : DVD-Video
Duration                                 : 26mn 50s
Delay relative to video                  : 9s 777ms

Text #2
ID                                       : 189 (0xBD)-33 (0x21)
Format                                   : RLE
Format/Info                              : Run-length encoding
Muxing mode                              : DVD-Video
Duration                                 : 26mn 50s
Delay relative to video                  : 9s 777ms

Text #3
ID                                       : 189 (0xBD)-34 (0x22)
Format                                   : RLE
Format/Info                              : Run-length encoding
Muxing mode                              : DVD-Video
Duration                                 : 26mn 38s
Delay relative to video                  : 22s 223ms

Text #4
ID                                       : 189 (0xBD)-35 (0x23)
Format                                   : RLE
Format/Info                              : Run-length encoding
Muxing mode                              : DVD-Video
Duration                                 : 26mn 38s
Delay relative to video                  : 22s 223ms

